<svg xmlns="http://www.w3.org/2000/svg" viewBox="0 0 2029.86 438.84"><defs><style>.cls-1{fill:#225d9b;}.cls-2{fill:#ee8035;}.cls-3{fill:#989898;}</style></defs><g id="Layer_2" data-name="Layer 2"><g id="Layer_1-2" data-name="Layer 1"><path class="cls-1" d="M560,295.74c-6.12,48.1-12.18,95.48-18.23,143.1H481.47c14.76-118.79,29.27-235.58,44-354.32,20-.24,38.64-.59,57.25-.74-.73,7.81-2.49,15.49-3.19,21.52,14-11,37-23.25,54.79-27.36,68-15.78,127,29.29,129.3,98.88,2.75,82.66-61.69,150.7-140.17,148C602.93,324.11,595.55,320.8,560,295.74Zm69.23-31.47c39.45,0,73.06-33.28,73.17-72.33.09-32-24.38-56.39-56.86-56.59-39.28-.24-75.23,35.16-74.57,73.43C571.52,239.89,597.16,264.31,629.24,264.27Z"/><path class="cls-1" d="M971.64,296c-22,18.15-45.16,28.92-72.77,29-54,.13-96.28-35.4-104.77-88.65C782.44,163.2,835.8,89.07,908.92,76.52c33-5.68,61.59,2.28,86.05,28.29L1001,84.23c18.63-.08,37.33-.08,57.68.38-5,78.11-22.2,153.66-23.73,232.06H979.31C974,311.87,975.59,303.89,971.64,296Zm-60.87-31.72c40.1.19,74.68-33.67,74.53-73-.13-31.43-25.43-55.93-57.81-56-39,0-73,33.65-73.22,72.53C854.09,240.61,877.64,264.11,910.77,264.27Z"/><path class="cls-2" d="M1850.91,218.43H1683c0,29.86,21.29,50.63,54.17,53.86,28,2.75,53.51-6.61,78.94-19.9,6.23,17.24,9,33.51,11.65,49.58-9.4,9.06-20.8,11.16-31.67,14.39-31.94,9.5-64.35,11.79-97.07,5.1-52.37-10.72-84-51.34-81.18-104.52,1.27-24,5.69-47.35,16.42-69.23,37.42-76.29,119.88-83.25,170-64.77,35.92,13.23,56.5,50.48,53.42,95.58C1856.9,190.76,1857.57,203.53,1850.91,218.43Zm-161.26-45.37h102.93c3-23.55-11.71-41.57-35.12-44.39C1724.47,124.69,1693.39,144.46,1689.65,173.06Z"/><path class="cls-1" d="M1146.72,438.14h-68.27l76.7-139.6L1092.1,84.15h67.84L1198.06,213l4,.45c23.73-42.76,47.46-85.53,71.68-129.16h68.26Z"/><path class="cls-2" d="M1405.5,317.16h-60.23c9.64-77.91,19.14-154.72,28.79-232.79,20.83-.22,39.07-.85,56.63-.83-.87,7.83-1.83,13.1-2.66,20.17,26.36-20.79,63.66-33.19,97.34-27.32,34.4,6,54.8,28.21,58.07,63.05,3.4,36.11-5,71.36-8.29,107-2.13,23.15-7.88,46.1-2.75,70.59H1514c-9.47-19.94-2.23-40.35-.63-60.41,2.08-26,7-51.72,8.2-77.68,1.65-34.26-20.82-50.93-54.2-41.76-26,7.12-40.78,25.26-44.71,50.89C1416.13,230.42,1411.26,273,1405.5,317.16Z"/><path class="cls-2" d="M1894.16,80h30.2c3.52-26.47,7-52.84,10.63-80h58c-3.62,28.19-6.41,52.27-9.5,80,16.24-.16,31.47,0,46.38,0-1.67,17.29-3.79,37.64-5.79,55.22h-45.44c-3.9,30.06-7.66,58.92-11.39,87.79-.41,3.23-.27,6.56-.94,9.72-5.29,24.88-4,45.62,37.18,36.45,1.39-.39-.65,31-1.32,47.83-22.87,9-45.89,11.71-68.93,4.27-22.59-7.3-33.73-31.43-30.35-63.9,3.09-29.69,7.26-59.27,10.89-88.9,1.24-10.14,3-23.56,4-33.2h-29C1890.54,119.53,1892.87,96.45,1894.16,80Z"/><g id="Layer_2-2" data-name="Layer 2"><g id="Layer_1-2-2" data-name="Layer 1-2"><polygon class="cls-3" points="406.98 154.69 51.63 154.69 72.22 84.15 426.49 84.15 406.98 154.69"/><polygon class="cls-3" points="381.48 252.44 26.14 252.44 46.73 181.94 400.99 181.94 381.48 252.44"/><polygon class="cls-3" points="355.35 350.23 0 350.23 20.62 279.69 374.88 279.69 355.35 350.23"/><polygon class="cls-2" points="406.98 154.69 51.63 154.69 72.22 84.15 426.49 84.15 406.98 154.69"/><polygon class="cls-2" points="381.48 252.44 26.14 252.44 46.73 181.94 400.99 181.94 381.48 252.44"/><polygon class="cls-2" points="355.35 350.23 0 350.23 20.62 279.69 374.88 279.69 355.35 350.23"/></g></g></g></g></svg>