<?xml version="1.0" standalone="no"?>
<!DOCTYPE svg PUBLIC "-//W3C//DTD SVG 20010904//EN"
 "http://www.w3.org/TR/2001/REC-SVG-20010904/DTD/svg10.dtd">
<svg version="1.0" xmlns="http://www.w3.org/2000/svg"
 width="960.000000pt" height="960.000000pt" viewBox="0 0 960.000000 960.000000"
 preserveAspectRatio="xMidYMid meet">
<metadata>
Created by potrace 1.14, written by Peter Selinger 2001-2017
</metadata>
<g transform="translate(0.000000,960.000000) scale(0.100000,-0.100000)"
fill="#000000" stroke="none">
<path d="M1607 7733 c-9 -32 -27 -98 -42 -148 -36 -123 -55 -187 -60 -205 -2
-8 -25 -85 -50 -170 -47 -158 -72 -243 -79 -270 -13 -51 -39 -139 -47 -160 -5
-14 -11 -34 -14 -45 -2 -11 -22 -83 -45 -160 -23 -77 -43 -147 -45 -155 -3 -8
-16 -53 -30 -99 -34 -115 -33 -121 13 -122 20 -1 42 0 47 1 8 2 50 1 150 -1 6
0 36 1 68 3 31 2 57 0 57 -5 0 -4 5 -5 11 -1 8 5 708 7 824 3 6 0 36 1 68 3
31 2 57 0 57 -5 0 -4 5 -5 11 -2 9 6 1494 10 1524 4 6 -1 15 0 20 1 8 2 510 1
560 -1 6 0 36 1 68 3 31 2 57 0 57 -5 0 -4 5 -5 11 -1 8 5 708 7 824 3 6 0 36
1 68 3 31 2 57 0 57 -5 0 -4 5 -5 10 -2 10 6 221 10 245 5 6 -1 15 -1 20 0 8
2 1797 1 1840 -1 6 0 36 1 68 3 31 2 57 0 57 -5 0 -4 5 -5 11 -1 8 5 708 7
824 3 6 0 36 1 68 3 31 2 57 1 57 -3 0 -4 15 -4 33 0 17 3 46 6 62 5 110 -5
176 -3 173 6 -1 3 4 15 11 28 7 13 14 33 16 44 3 12 16 62 30 112 26 95 29
103 71 251 14 50 27 99 29 109 3 11 20 76 40 146 20 70 37 135 40 146 4 20 97
351 117 419 6 22 12 45 14 50 1 6 11 43 22 83 11 39 18 72 15 72 -3 0 -1 6 4
13 6 6 13 26 17 42 4 17 9 38 12 48 5 16 -189 17 -3984 17 l-3990 0 -15 -57z"/>
<path d="M1044 5563 c-3 -16 -13 -48 -21 -73 -8 -25 -16 -53 -18 -63 -4 -16
-20 -72 -75 -252 -10 -33 -32 -112 -50 -175 -17 -63 -34 -122 -37 -130 -4 -8
-7 -17 -8 -20 -5 -21 -40 -137 -56 -193 -12 -37 -22 -73 -23 -80 -1 -7 -10
-37 -19 -67 -9 -30 -17 -59 -18 -65 -1 -5 -10 -34 -20 -62 -10 -29 -15 -53
-12 -53 3 0 1 -6 -5 -12 -6 -7 -11 -17 -11 -23 -3 -21 -37 -143 -61 -215 -5
-14 -11 -38 -15 -54 -5 -25 -4 -28 14 -23 12 3 21 0 21 -6 0 -8 3 -8 11 0 7 7
23 8 45 3 19 -4 36 -4 39 0 3 4 20 4 39 0 19 -4 53 -4 75 0 23 4 41 4 41 0 0
-4 18 -4 40 0 22 4 58 4 80 0 22 -4 40 -4 40 0 0 4 18 4 40 0 22 -4 40 -4 40
0 0 4 18 4 39 0 22 -4 45 -4 51 0 7 4 24 5 38 1 14 -4 47 -4 74 -1 26 4 50 4
53 2 6 -7 126 -5 132 2 2 2 17 1 31 -3 15 -5 36 -5 47 -1 11 4 34 4 51 0 18
-4 37 -4 44 0 7 4 27 4 46 0 19 -4 34 -4 34 0 0 4 18 4 40 0 22 -4 40 -4 40 0
0 4 18 4 40 0 22 -4 40 -4 40 0 0 4 17 4 38 0 21 -4 47 -4 58 0 10 4 28 4 39
0 11 -4 32 -4 48 1 15 4 27 5 27 1 0 -4 39 -6 87 -4 49 2 99 2 113 2 14 -1 30
-2 35 -1 6 0 36 2 68 3 31 2 57 0 57 -3 0 -3 19 -3 43 1 23 3 57 3 75 -1 18
-4 34 -3 37 1 3 4 20 4 39 0 19 -4 53 -4 75 0 23 4 41 4 41 0 0 -4 18 -4 40 0
22 4 58 4 80 0 22 -4 40 -4 40 0 0 4 18 4 40 0 22 -4 40 -4 40 0 0 4 18 4 39
0 22 -4 45 -4 51 0 7 4 24 5 38 1 14 -4 47 -4 74 -1 26 4 50 4 53 2 6 -7 126
-5 132 2 2 2 17 1 31 -3 15 -5 36 -5 47 -1 11 4 34 4 51 0 18 -4 37 -4 44 0 7
4 27 4 46 0 19 -4 34 -4 34 0 0 4 18 4 40 0 22 -4 40 -4 40 0 0 4 18 4 40 0
22 -4 40 -4 40 0 0 4 17 4 38 0 21 -4 47 -4 58 0 10 4 28 4 39 0 11 -4 32 -4
48 1 15 4 27 5 27 1 0 -4 39 -6 87 -4 49 2 99 2 113 2 14 -1 30 -2 35 -1 6 0
36 2 68 3 31 2 57 0 57 -3 0 -3 19 -3 43 1 23 3 57 3 75 -1 18 -4 34 -3 37 1
3 4 20 4 39 0 19 -4 53 -4 75 0 23 4 41 4 41 0 0 -4 18 -4 40 0 22 4 58 4 80
0 22 -4 40 -4 40 0 0 4 18 4 40 0 22 -4 40 -4 40 0 0 4 18 4 39 0 22 -4 45 -4
52 0 6 4 25 4 40 0 16 -5 29 -5 29 -1 0 5 17 5 38 1 21 -4 47 -4 58 0 10 4 28
4 39 0 11 -4 32 -4 48 1 15 4 27 5 27 1 0 -4 39 -6 87 -4 49 2 99 2 113 2 14
-1 30 -2 35 -1 6 0 36 2 68 3 31 2 57 0 57 -3 0 -3 19 -3 43 1 23 3 57 3 75
-1 18 -4 34 -3 37 1 3 4 20 4 39 0 19 -4 53 -4 75 0 23 4 41 4 41 0 0 -4 18
-4 40 0 22 4 58 4 80 0 22 -4 40 -4 40 0 0 4 18 4 40 0 22 -4 40 -4 40 0 0 4
18 4 39 0 22 -4 45 -4 51 0 7 4 24 5 38 1 14 -4 47 -4 74 -1 26 4 50 4 53 2 6
-7 126 -5 132 2 2 2 17 1 31 -3 15 -5 36 -5 47 -1 11 4 34 4 51 0 18 -4 37 -4
44 0 7 4 27 4 46 0 19 -4 34 -4 34 0 0 4 18 4 40 0 22 -4 40 -4 40 0 0 4 18 4
40 0 22 -4 40 -4 40 0 0 4 17 4 38 0 21 -4 47 -4 58 0 10 4 28 4 39 0 11 -4
32 -4 48 1 15 4 27 5 27 1 0 -4 39 -6 87 -4 49 2 99 2 113 2 14 -1 30 -2 35
-1 6 0 36 2 68 3 31 2 57 0 57 -3 0 -3 19 -3 43 1 23 3 57 3 75 -1 18 -4 34
-3 37 1 3 4 20 4 39 0 19 -4 53 -4 75 0 23 4 41 4 41 0 0 -4 18 -4 40 0 22 4
58 4 80 0 22 -4 40 -4 40 0 0 4 18 4 40 0 22 -4 40 -4 40 0 0 4 18 4 39 0 22
-4 45 -4 51 0 7 4 24 5 38 1 14 -4 47 -4 74 -1 26 4 50 4 53 2 3 -3 28 -4 57
-3 29 1 68 1 86 2 17 0 32 3 33 7 1 11 7 35 17 69 6 17 8 34 4 37 -3 3 0 6 7
6 7 0 10 4 7 9 -4 5 -1 22 4 37 10 25 47 157 55 194 2 8 4 16 5 18 2 1 4 7 5
12 1 6 3 11 5 13 1 1 3 9 5 18 1 9 11 43 20 75 9 33 19 66 21 74 3 14 58 213
90 330 9 30 17 60 18 65 3 13 33 117 52 180 8 28 16 59 19 70 2 11 16 61 30
110 14 50 28 99 30 110 3 11 13 50 24 88 l20 67 -3990 0 -3989 0 -6 -27z"/>
<path d="M450 3342 c-7 -26 -18 -65 -26 -87 -12 -38 -45 -148 -50 -170 -2 -13
-98 -340 -171 -585 -30 -102 -56 -192 -58 -200 -2 -8 -18 -62 -35 -120 -17
-58 -33 -112 -35 -120 -8 -27 -59 -203 -72 -243 -5 -16 188 -17 3997 -15
l4003 3 18 65 c10 36 18 65 18 65 2 0 149 537 157 574 3 14 7 28 10 33 3 4 7
17 10 28 2 11 6 28 8 38 2 9 23 85 47 167 23 83 43 157 44 165 1 8 5 22 8 30
3 8 13 40 21 70 8 30 27 98 41 150 15 52 28 102 30 110 1 8 5 22 8 30 3 8 7
24 9 35 3 20 -3 20 -3983 22 l-3987 2 -12 -47z"/>
</g>
</svg>
